<!DOCTYPE svg PUBLIC "-//W3C//DTD SVG 1.1//EN" "http://www.w3.org/Graphics/SVG/1.1/DTD/svg11.dtd">
<!-- Uploaded to: SVG Repo, www.svgrepo.com, Transformed by: SVG Repo Mixer Tools -->
<svg version="1.1" id="Layer_1" xmlns="http://www.w3.org/2000/svg" xmlns:xlink="http://www.w3.org/1999/xlink" viewBox="0 0 511.997 511.997" xml:space="preserve" width="800px" height="800px" fill="#000000">
<g id="SVGRepo_bgCarrier" stroke-width="0"/>
<g id="SVGRepo_tracerCarrier" stroke-linecap="round" stroke-linejoin="round"/>
<g id="SVGRepo_iconCarrier"> <circle style="fill:#1591c6;" cx="255.998" cy="255.998" r="255.998"/> <path style="fill:#324A5E;" d="M334.4,406.801H121.6c-4.4,0-8-3.6-8-8V129.2c0-4.4,3.6-8,8-8h212.8c4.4,0,8,3.6,8,8v270 C342.4,403.2,338.8,406.801,334.4,406.801z"/> <rect x="134.398" y="141.598" style="fill:#FFFFFF;" width="187.596" height="244.796"/> <path style="fill:#2B3B4E;" d="M267.2,102.4h-24.8c0-8.4-6.4-15.2-14.4-15.2s-14.4,6.8-14.4,15.2h-24.8l-11.2,46.8h100.4 L267.2,102.4z"/> <rect x="146.798" y="169.599" style="fill:#54C0EB;" width="36" height="36"/> <g> <rect x="198.402" y="181.604" style="fill:#CED5E0;" width="111.201" height="12"/> <rect x="146.798" y="225.997" style="fill:#CED5E0;" width="36" height="36"/> </g> <rect x="198.402" y="238.002" style="fill:#F1543F;" width="111.201" height="12"/> <rect x="146.798" y="281.999" style="fill:#2C9984;" width="36" height="36"/> <g> <rect x="198.402" y="294.003" style="fill:#CED5E0;" width="111.201" height="12"/> <rect x="146.798" y="338.396" style="fill:#CED5E0;" width="36" height="36"/> </g> <rect x="198.402" y="350.401" style="fill:#F1543F;" width="111.201" height="12"/> <circle style="fill:#F9B54C;" cx="362.395" cy="335.603" r="71.205"/> <circle style="fill:#FFFFFF;" cx="362.395" cy="335.603" r="55.6"/> <polygon style="fill:#F1543F;" points="389.365,353.937 370.985,335.556 389.227,317.314 380.742,308.828 362.499,327.071 344.393,308.965 335.909,317.451 354.014,335.556 335.771,353.8 344.255,362.285 362.499,344.042 380.88,362.423 "/> </g>
</svg>